<svg width="16" height="16" viewBox="0 0 16 16" fill="none" xmlns="http://www.w3.org/2000/svg">
<g clip-path="url(#clip0)">
<path d="M7.49939 7.55613V5.15165H5.1864C4.91943 5.95743 4.76343 6.76075 4.72034 7.55613H7.49939Z" fill="black"/>
<path d="M5.54834 4.2111H7.49939V1.0905C6.93054 1.77017 6.43323 2.4962 6.01965 3.25268C5.84521 3.57191 5.68823 3.89151 5.54834 4.2111Z" fill="black"/>
<path d="M3.78235 8.49658H-0.0292969C0.0192871 9.31776 0.190552 10.1155 0.476196 10.8683H4.19727C3.97888 10.132 3.82593 9.33635 3.78235 8.49658Z" fill="black"/>
<path d="M11.8781 10.8683H15.4613C15.7469 10.1155 15.9182 9.31776 15.9668 8.49658H12.2571C12.2299 9.28351 12.1029 10.0756 11.8781 10.8683Z" fill="black"/>
<path d="M11.3011 7.55613C11.2432 6.76088 11.0741 5.95755 10.7953 5.15165H8.43811V7.55613H11.3011Z" fill="black"/>
<path d="M4.20178 5.15165H0.476807C0.187134 5.9145 0.0148926 6.72333 -0.03125 7.55613H3.78052C3.81934 6.75806 3.96021 5.9551 4.20178 5.15165Z" fill="black"/>
<path d="M7.49939 8.49658H4.72217C4.76721 9.2807 4.92053 10.073 5.18091 10.8683H7.49939V8.49658Z" fill="black"/>
<path d="M8.43811 1.10653V4.2111H10.4205C10.2922 3.92649 10.1506 3.64175 9.99524 3.35726C9.38159 2.23336 8.72839 1.43664 8.43811 1.10653Z" fill="black"/>
<path d="M9.03418 0.364159C9.37939 0.740749 10.6064 2.16418 11.4443 4.21127H15.0317C14.665 3.52915 14.197 2.89682 13.6349 2.3337C12.2963 0.992461 10.5675 0.184731 8.70508 0.0158224C8.88367 0.204546 9.01978 0.348381 9.03418 0.364159Z" fill="black"/>
<path d="M6.99768 15.8207C6.64319 15.4341 5.35938 13.9442 4.52148 11.8088H0.905029C1.27173 12.4914 1.74011 13.1243 2.30261 13.6879C3.62549 15.0132 5.32935 15.8181 7.16663 15.9999C7.07178 15.8996 7.00732 15.8312 6.99768 15.8207Z" fill="black"/>
<path d="M4.53052 4.21111C4.71826 3.74022 4.94006 3.26981 5.19641 2.80088C5.68664 1.90435 6.2854 1.04807 6.97632 0.256115L6.9967 0.232754C7.06274 0.1568 7.12427 0.0861056 7.18188 0.0200586C5.33862 0.198875 3.62915 1.00453 2.30273 2.33354C1.7406 2.89677 1.27246 3.52911 0.905762 4.21111H4.53052Z" fill="black"/>
<path d="M11.5654 11.8088C11.3649 12.3348 11.1216 12.8603 10.8353 13.3838C10.3452 14.2805 9.74646 15.1366 9.05554 15.9286L9.03503 15.9521C9.02942 15.9585 9.02417 15.9647 9.01855 15.971C10.761 15.744 12.3717 14.9534 13.6349 13.6879C14.1974 13.1243 14.6658 12.4914 15.0325 11.8088H11.5654Z" fill="black"/>
<path d="M10.5541 11.8088H8.43811V15.2057C9.04663 14.4943 9.57581 13.7299 10.0121 12.932C10.2167 12.5579 10.3971 12.1833 10.5541 11.8088Z" fill="black"/>
<path d="M11.7842 5.15165C12.0173 5.89542 12.1855 6.70229 12.2418 7.55613H15.9688C15.9226 6.72333 15.7504 5.9145 15.4607 5.15165H11.7842Z" fill="black"/>
<path d="M7.49939 14.9691V11.8088H5.53845C5.6853 12.1484 5.8512 12.4881 6.0365 12.8275C6.59082 13.8425 7.17713 14.5905 7.49939 14.9691Z" fill="black"/>
<path d="M8.43811 8.49658V10.8683H10.8984C11.1471 10.0733 11.2874 9.28082 11.3175 8.49658H8.43811Z" fill="black"/>
</g>
<defs>
<clipPath id="clip0">
<rect width="16" height="16" fill="white"/>
</clipPath>
</defs>
</svg>
