<svg width="15" height="16" viewBox="0 0 15 16" fill="none" xmlns="http://www.w3.org/2000/svg">
<g clip-path="url(#clip0)">
<path d="M11.404 10.5843C10.9139 10.0683 10.3021 10.0683 9.81518 10.5843C9.44374 10.9772 9.0723 11.3701 8.7071 11.7696C8.60721 11.8795 8.52294 11.9028 8.4012 11.8295C8.16086 11.6897 7.90491 11.5765 7.67393 11.4233C6.59706 10.7008 5.69499 9.77193 4.89592 8.72649C4.49951 8.20709 4.14679 7.65108 3.90021 7.02514C3.85026 6.89862 3.85963 6.81538 3.95639 6.71217C4.32783 6.32928 4.68991 5.93641 5.05511 5.54353C5.56389 4.9975 5.56389 4.35825 5.05199 3.80889C4.7617 3.49592 4.47141 3.18961 4.18113 2.87665C3.88148 2.55702 3.58495 2.23406 3.28218 1.91776C2.79212 1.40836 2.18034 1.40836 1.6934 1.92109C1.31884 2.31397 0.959886 2.71683 0.57908 3.10305C0.226366 3.4593 0.0484489 3.89546 0.0109926 4.40486C-0.0483132 5.2339 0.14209 6.01632 0.410526 6.77876C0.959886 8.35692 1.79641 9.75862 2.81085 11.0438C4.18113 12.7818 5.81672 14.1568 7.73011 15.149C8.59161 15.5951 9.48432 15.9381 10.4551 15.9947C11.123 16.0346 11.7036 15.8548 12.1687 15.2988C12.4871 14.9193 12.846 14.573 13.1831 14.2101C13.6825 13.6707 13.6857 13.0181 13.1894 12.4854C12.5963 11.8495 12.0001 11.2169 11.404 10.5843Z" fill="black"/>
<path d="M10.8079 7.93075L11.9596 7.721C11.7786 6.59231 11.2792 5.57017 10.5207 4.75779C9.71851 3.90212 8.70407 3.36275 7.58663 3.19627L7.42432 4.4315C8.28893 4.56135 9.07551 4.97753 9.69666 5.64009C10.2835 6.26603 10.6674 7.05844 10.8079 7.93075Z" fill="black"/>
<path d="M12.6088 2.59031C11.2791 1.17197 9.59667 0.276344 7.73946 0L7.57715 1.23523C9.18153 1.47495 10.6361 2.25071 11.7847 3.47262C12.8741 4.63459 13.5889 6.10288 13.848 7.71766L14.9997 7.50791C14.697 5.63676 13.8698 3.93874 12.6088 2.59031Z" fill="black"/>
</g>
<defs>
<clipPath id="clip0">
<rect width="15" height="16" fill="white"/>
</clipPath>
</defs>
</svg>
